<svg xmlns="http://www.w3.org/2000/svg" width="1400" height="900" viewBox="0 0 1400 900" role="img" aria-labelledby="title desc">
  <title id="title">dcc-mcp-core current architecture</title>
  <desc id="desc">A layered architecture diagram showing agent clients, the four-tool MCP gateway workflow, REST twins, the elected gateway, per-DCC servers, host bridges, and DCC applications.</desc>
  <defs>
    <linearGradient id="bg" x1="0" y1="0" x2="1" y2="1">
      <stop offset="0" stop-color="#ffffff"/>
      <stop offset="0.54" stop-color="#f8fafc"/>
      <stop offset="1" stop-color="#f4f4f5"/>
    </linearGradient>
    <linearGradient id="gateway" x1="0" y1="0" x2="1" y2="1">
      <stop offset="0" stop-color="#27272a"/>
      <stop offset="1" stop-color="#09090b"/>
    </linearGradient>
    <linearGradient id="agent" x1="0" y1="0" x2="1" y2="1">
      <stop offset="0" stop-color="#ffffff"/>
      <stop offset="1" stop-color="#f4f4f5"/>
    </linearGradient>
    <linearGradient id="dcc" x1="0" y1="0" x2="1" y2="1">
      <stop offset="0" stop-color="#ffffff"/>
      <stop offset="1" stop-color="#fafafa"/>
    </linearGradient>
    <filter id="shadow" x="-15%" y="-15%" width="130%" height="130%">
      <feDropShadow dx="0" dy="10" stdDeviation="14" flood-color="#27343a" flood-opacity="0.14"/>
    </filter>
    <marker id="arrow" markerWidth="10" markerHeight="10" refX="8" refY="5" orient="auto" markerUnits="strokeWidth">
      <path d="M 0 0 L 10 5 L 0 10 z" fill="#6f7f82"/>
    </marker>
    <style>
      .label { font-family: Inter, ui-sans-serif, system-ui, -apple-system, BlinkMacSystemFont, "Segoe UI", sans-serif; fill: #18181b; }
      .mono { font-family: "SFMono-Regular", Consolas, "Liberation Mono", monospace; fill: #3f3f46; }
      .title { font-size: 38px; font-weight: 760; letter-spacing: 0; }
      .subtitle { font-size: 18px; fill: #71717a; }
      .section { font-size: 15px; font-weight: 760; text-transform: uppercase; letter-spacing: 1.2px; fill: #71717a; }
      .card-title { font-size: 24px; font-weight: 760; }
      .card-small { font-size: 15px; fill: #52525b; }
      .chip { font-size: 13px; font-weight: 680; fill: #27272a; }
      .dark { fill: #ffffff; }
      .dark-sub { fill: #e4e4e7; }
      .line { stroke: #71717a; stroke-width: 3; fill: none; marker-end: url(#arrow); }
      .soft-line { stroke: #a1a1aa; stroke-width: 2; stroke-dasharray: 7 8; fill: none; marker-end: url(#arrow); }
      .card { filter: url(#shadow); }
    </style>
  </defs>

  <rect width="1400" height="900" rx="32" fill="url(#bg)"/>
  <rect x="48" y="48" width="1304" height="804" rx="28" fill="#ffffff" opacity="0.64"/>

  <text x="80" y="82" class="label title">dcc-mcp-core Architecture</text>
  <text x="82" y="116" class="label subtitle">Skills-first control plane with MCP workflow tools, REST twins, routing, diagnostics, and audit trails.</text>

  <rect x="80" y="162" width="1240" height="92" rx="18" fill="url(#agent)" stroke="#e4e4e7" class="card"/>
  <text x="112" y="193" class="label section">Agent and operator surfaces</text>
  <g>
    <rect x="112" y="209" width="236" height="30" rx="15" fill="#f4f4f5"/>
    <text x="132" y="229" class="label chip">MCP clients</text>
    <rect x="376" y="209" width="238" height="30" rx="15" fill="#f4f4f5"/>
    <text x="396" y="229" class="label chip">dcc-mcp-cli</text>
    <rect x="642" y="209" width="278" height="30" rx="15" fill="#f4f4f5"/>
    <text x="662" y="229" class="label chip">REST / CI clients</text>
    <rect x="948" y="209" width="314" height="30" rx="15" fill="#f4f4f5"/>
    <text x="968" y="229" class="label chip">Studio automation and skills</text>
  </g>

  <path class="line" d="M 700 254 L 700 310"/>
  <text x="734" y="292" class="mono" font-size="15">MCP workflow + REST /v1 twins</text>

  <rect x="220" y="310" width="960" height="188" rx="24" fill="url(#gateway)" class="card"/>
  <text x="260" y="356" class="label card-title dark">Elected Gateway</text>
  <text x="260" y="387" class="label card-small dark-sub">Minimal tools/list: search, describe, load_skill, and call; REST routes mirror the workflow.</text>

  <g>
    <rect x="260" y="418" width="168" height="40" rx="20" fill="#ffffff" opacity="0.12"/>
    <text x="300" y="443" class="label chip dark">MCP search</text>
    <rect x="450" y="418" width="178" height="40" rx="20" fill="#ffffff" opacity="0.12"/>
    <text x="482" y="443" class="label chip dark">MCP describe</text>
    <rect x="650" y="418" width="154" height="40" rx="20" fill="#ffffff" opacity="0.12"/>
    <text x="676" y="443" class="label chip dark">MCP load</text>
    <rect x="826" y="418" width="150" height="40" rx="20" fill="#ffffff" opacity="0.12"/>
    <text x="854" y="443" class="label chip dark">MCP call</text>
    <rect x="998" y="418" width="138" height="40" rx="20" fill="#ffffff" opacity="0.12"/>
    <text x="1022" y="443" class="label chip dark">Admin UI</text>
  </g>

  <rect x="260" y="470" width="876" height="1" fill="#ffffff" opacity="0.17"/>
  <text x="260" y="488" class="label card-small dark-sub">Instance registry | REST routing | TCP liveness probes | Gateway election | OpenAPI | audit.jsonl | traces.jsonl | metrics</text>

  <path class="line" d="M 430 498 C 430 535, 300 540, 300 578"/>
  <path class="line" d="M 610 498 C 610 535, 540 540, 540 578"/>
  <path class="line" d="M 790 498 C 790 535, 820 540, 820 578"/>
  <path class="line" d="M 970 498 C 970 535, 1085 540, 1085 578"/>
  <text x="602" y="548" class="mono" font-size="15">REST-routed calls to the owning per-DCC server</text>

  <g class="card">
    <rect x="120" y="578" width="300" height="152" rx="22" fill="url(#dcc)" stroke="#e4e4e7"/>
    <text x="154" y="622" class="label card-title">Maya Adapter</text>
    <text x="154" y="652" class="label card-small">MCP + REST server</text>
    <text x="154" y="680" class="mono" font-size="14">Skills catalog</text>
    <text x="154" y="706" class="mono" font-size="14">UI-thread dispatcher</text>
  </g>

  <g class="card">
    <rect x="460" y="578" width="300" height="152" rx="22" fill="url(#dcc)" stroke="#e4e4e7"/>
    <text x="494" y="622" class="label card-title">Blender Adapter</text>
    <text x="494" y="652" class="label card-small">MCP + REST server</text>
    <text x="494" y="680" class="mono" font-size="14">Skills catalog</text>
    <text x="494" y="706" class="mono" font-size="14">Add-on bridge</text>
  </g>

  <g class="card">
    <rect x="800" y="578" width="300" height="152" rx="22" fill="url(#dcc)" stroke="#e4e4e7"/>
    <text x="834" y="622" class="label card-title">Houdini / Unreal</text>
    <text x="834" y="652" class="label card-small">MCP + REST server</text>
    <text x="834" y="680" class="mono" font-size="14">Skills catalog</text>
    <text x="834" y="706" class="mono" font-size="14">Host bridge / RPC</text>
  </g>

  <g class="card">
    <rect x="1140" y="578" width="140" height="152" rx="22" fill="url(#dcc)" stroke="#e4e4e7"/>
    <text x="1170" y="622" class="label card-title" font-size="20">Custom</text>
    <text x="1170" y="652" class="label card-small">Studio host</text>
    <text x="1170" y="680" class="mono" font-size="14">IPC</text>
    <text x="1170" y="706" class="mono" font-size="14">Policy</text>
  </g>

  <path class="soft-line" d="M 270 730 L 270 782"/>
  <path class="soft-line" d="M 610 730 L 610 782"/>
  <path class="soft-line" d="M 950 730 L 950 782"/>
  <path class="soft-line" d="M 1210 730 L 1210 782"/>

  <g>
    <rect x="120" y="782" width="300" height="72" rx="18" fill="#ffffff" stroke="#e4e4e7"/>
    <text x="154" y="825" class="label card-title" font-size="22">Maya Python APIs</text>
    <rect x="460" y="782" width="300" height="72" rx="18" fill="#ffffff" stroke="#e4e4e7"/>
    <text x="494" y="825" class="label card-title" font-size="22">Blender Python APIs</text>
    <rect x="800" y="782" width="300" height="72" rx="18" fill="#ffffff" stroke="#e4e4e7"/>
    <text x="834" y="825" class="label card-title" font-size="22">DCC Native APIs</text>
    <rect x="1140" y="782" width="140" height="72" rx="18" fill="#ffffff" stroke="#e4e4e7"/>
    <text x="1170" y="825" class="label card-title" font-size="22">Studio APIs</text>
  </g>

  <g>
    <rect x="1070" y="80" width="250" height="116" rx="20" fill="#ffffff" stroke="#e4e4e7" class="card"/>
    <text x="1100" y="118" class="label section">Skills-first loop</text>
    <text x="1100" y="148" class="mono" font-size="14">search_skills</text>
    <text x="1100" y="170" class="mono" font-size="14">load_skill</text>
    <text x="1100" y="192" class="mono" font-size="14">validated tool call</text>
  </g>
</svg>
