<svg role="img" viewBox="0 0 24 24" xmlns="http://www.w3.org/2000/svg"><title>Adobe Photoshop</title><path d="M7.5 20.5c-.5 0-.5-.9-.5-1.4v-3.6c0-.5 0-1 .5-1s.5.5.5 1v3.6c0 .5 0 1.4-.5 1.4zm4-4.6V7.4c0-.5 0-1 .5-1s.5.5.5 1v8.8c0 .5 0 1-.5 1s-.5-.5-.5-1v-3.1zm-2 2.1c-.8 0-1.5-.7-1.5-1.5v-7c0-.9.7-1.5 1.5-1.5h6c.9 0 1.5.6 1.5 1.5v7c0 .8-.6 1.5-1.5 1.5H9.5zM16 2H8C4.7 2 2 4.7 2 8v8c0 3.3 2.7 6 6 6h8c3.3 0 6-2.7 6-6V8c0-3.3-2.7-6-6-6zm0 14c-1.7 0-3-1.3-3-3V7c0-1.7 1.3-3 3-3s3 1.3 3 3v6c0 1.7-1.3 3-3 3z"/></svg>
